<svg xmlns="http://www.w3.org/2000/svg" version="1.1" xmlns:xlink="http://www.w3.org/1999/xlink" xmlns:svgjs="http://svgjs.dev/svgjs" width="1500" height="1500" viewBox="0 0 1500 1500"><rect width="1500" height="1500" fill="#1f0f53"></rect><g transform="matrix(0.6666666666666666,0,0,0.6666666666666666,249.39393939393938,438.5856950067477)"><svg viewBox="0 0 396 247" data-background-color="#1f0f53" preserveAspectRatio="xMidYMid meet" height="935" width="1500" xmlns="http://www.w3.org/2000/svg" xmlns:xlink="http://www.w3.org/1999/xlink"><g id="tight-bounds" transform="matrix(1,0,0,1,0.2400000000000091,-0.09999999999999432)"><svg viewBox="0 0 395.52 247.2" height="247.2" width="395.52"><g><svg></svg></g><g><svg viewBox="0 0 395.52 247.2" height="247.2" width="395.52"><g transform="matrix(1,0,0,1,75.54432,98.81969206170288)"><svg viewBox="0 0 244.43135999999998 49.56061587659422" height="49.56061587659422" width="244.43135999999998"><g><svg viewBox="0 0 244.43135999999998 49.56061587659422" height="49.56061587659422" width="244.43135999999998"><g><svg viewBox="0 0 382.7537982276973 77.60671122261218" height="49.56061587659422" width="244.43135999999998"><g transform="matrix(1,0,0,1,0,10.725674271721367)"><svg viewBox="0 0 244.43135999999998 56.15536267916944" height="56.15536267916944" width="244.43135999999998"><g id="textblocktransform"><svg viewBox="0 0 244.43135999999998 56.15536267916944" height="56.15536267916944" width="244.43135999999998" id="textblock"><g><svg viewBox="0 0 244.43135999999998 56.15536267916944" height="56.15536267916944" width="244.43135999999998"><g transform="matrix(1,0,0,1,0,0)"><svg width="244.43135999999998" viewBox="1 -33.9 149.28 34.3" height="56.15536267916944" data-palette-color="#ffdb99"><path d="M7.8-27.5L7.8-21.1 14.1-21.1Q14.35-21.1 14.35-20.55L14.35-20.55Q14.35-19.8 13.65-19.1L13.65-19.1 7.8-19.1 7.8-6.3Q7.8-2.3 11.05-2.3L11.05-2.3Q12.15-2.3 13.05-2.75 13.95-3.2 14.2-3.4L14.2-3.4Q14.35-3.35 14.35-3.1L14.35-3.1Q14.35-2.55 14.15-2.35L14.15-2.35Q13.8-1.95 13.08-1.3 12.35-0.65 11.35-0.15 10.35 0.35 9.15 0.35L9.15 0.35Q7.9 0.35 6.73-0.1 5.55-0.55 4.8-1.7 4.05-2.85 4.05-4.95L4.05-4.95 4.05-19.1 1.2-19.1Q1.1-19.1 1.05-19.28 1-19.45 1-19.55L1-19.55Q1-19.65 1.3-20.03 1.6-20.4 1.93-20.75 2.25-21.1 2.25-21.1L2.25-21.1 4.05-21.1 4.05-24.15Q4.55-24.7 5.23-25.43 5.9-26.15 6.45-26.78 7-27.4 7.05-27.45L7.05-27.45Q7.25-27.65 7.53-27.65 7.8-27.65 7.8-27.5L7.8-27.5ZM26.9-21.3L26.9-21.3Q28.3-21.3 29.52-20.4 30.75-19.5 31.5-18 32.25-16.5 32.25-14.6L32.25-14.6 32.25-4.55Q32.25-3.6 32.6-2.93 32.95-2.25 33.75-2.25L33.75-2.25Q34.45-2.25 34.85-2.55 35.25-2.85 35.35-2.9L35.35-2.9Q35.45-2.9 35.5-2.75 35.55-2.6 35.55-2.5L35.55-2.5Q35.55-1.95 35.3-1.55L35.3-1.55Q35-1.3 34.32-0.85 33.65-0.4 32.92-0.05 32.2 0.3 31.65 0.3L31.65 0.3Q30.6 0.3 29.77-0.75 28.95-1.8 28.7-2.9L28.7-2.9Q28.5-2.7 27.77-2.15 27.05-1.6 26.1-1.03 25.15-0.45 24.22-0.03 23.3 0.4 22.65 0.4L22.65 0.4Q20.25 0.4 18.6-1.23 16.95-2.85 16.95-5.2L16.95-5.2Q16.95-6.7 17.77-7.78 18.6-8.85 19.4-9.15L19.4-9.15Q20.8-9.65 22.52-10.23 24.25-10.8 25.75-11.35 27.25-11.9 27.95-12.2L27.95-12.2Q28.35-12.35 28.45-12.58 28.55-12.8 28.55-13.45L28.55-13.45 28.55-14.75Q28.55-15.85 28-16.93 27.45-18 26.5-18.73 25.55-19.45 24.35-19.45L24.35-19.45Q23.1-19.45 22.5-18.65 21.9-17.85 21.65-16.4L21.65-16.4Q21.2-14.05 19.35-14.05L19.35-14.05Q18.55-14.05 18.12-14.7 17.7-15.35 17.7-16.1L17.7-16.1Q17.7-16.25 17.8-16.68 17.9-17.1 18.05-17.3L18.05-17.3Q18.8-18 20.2-18.95 21.6-19.9 23.37-20.6 25.15-21.3 26.9-21.3ZM24.3-2.25L24.3-2.25Q25.15-2.25 26.15-2.65 27.15-3.05 27.85-3.53 28.55-4 28.55-4.25L28.55-4.25 28.55-10.9Q27.6-10.6 26.15-10.15 24.7-9.7 24-9.45L24-9.45Q22.7-8.95 21.85-8 21-7.05 21-5.65L21-5.65Q21-4.3 21.95-3.28 22.9-2.25 24.3-2.25ZM40.3-28.95L40.3-28.95Q40.3-29.95 41.02-30.68 41.75-31.4 42.75-31.4L42.75-31.4Q43.75-31.4 44.47-30.68 45.2-29.95 45.2-28.95L45.2-28.95Q45.2-27.95 44.47-27.23 43.75-26.5 42.75-26.5L42.75-26.5Q41.75-26.5 41.02-27.23 40.3-27.95 40.3-28.95ZM45-17.5L45-5.65Q45-4.55 45.02-3.6 45.05-2.65 45.25-2.05L45.25-2.05Q45.35-1.8 45.97-1.6 46.6-1.4 47.3-1.33 48-1.25 48.3-1.25L48.3-1.25Q48.45-1.05 48.47-0.55 48.5-0.05 48.3 0.15L48.3 0.15Q46.8 0.05 45.67-0.03 44.55-0.1 43.1-0.1L43.1-0.1Q41.7-0.1 40.55-0.03 39.4 0.05 37.9 0.15L37.9 0.15Q37.7-0.05 37.72-0.55 37.75-1.05 37.9-1.25L37.9-1.25Q38.2-1.25 38.92-1.33 39.65-1.4 40.3-1.6 40.95-1.8 41-2.05L41-2.05Q41.2-2.65 41.22-3.6 41.25-4.55 41.25-5.65L41.25-5.65 41.25-14.75Q41.25-15.25 41.22-16.05 41.2-16.85 41-17.3L41-17.3Q40.85-17.75 40.15-17.93 39.45-18.1 38.75-18.13 38.05-18.15 37.85-18.15L37.85-18.15Q37.8-18.25 37.75-18.75 37.7-19.25 37.85-19.45L37.85-19.45Q39.75-19.7 41.55-20.2 43.35-20.7 44.8-21.5L44.8-21.5Q45-21.5 45.17-21.2 45.35-20.9 45.35-20.7L45.35-20.7Q45.35-20.55 45.25-19.85 45.15-19.15 45.07-18.45 45-17.75 45-17.5L45-17.5ZM53.64-5.65L53.64-27.25Q53.64-27.8 53.62-28.58 53.59-29.35 53.39-29.8L53.39-29.8Q53.19-30.35 52.32-30.5 51.44-30.65 50.44-30.65L50.44-30.65Q50.39-30.65 50.37-31.28 50.34-31.9 50.49-31.95L50.49-31.95Q52.34-32.15 54.09-32.68 55.84-33.2 57.39-33.9L57.39-33.9Q57.59-33.9 57.77-33.63 57.94-33.35 57.94-33.1L57.94-33.1Q57.94-33.1 57.67-32 57.39-30.9 57.39-28.85L57.39-28.85 57.39-5.65Q57.39-4.55 57.42-3.6 57.44-2.65 57.64-2.05L57.64-2.05Q57.74-1.8 58.37-1.6 58.99-1.4 59.72-1.33 60.44-1.25 60.74-1.25L60.74-1.25Q60.89-1.05 60.92-0.55 60.94-0.05 60.74 0.15L60.74 0.15Q59.24 0.05 58.09-0.03 56.94-0.1 55.49-0.1L55.49-0.1Q54.09-0.1 52.97-0.03 51.84 0.05 50.34 0.15L50.34 0.15Q50.14-0.05 50.17-0.55 50.19-1.05 50.34-1.25L50.34-1.25Q50.64-1.25 51.34-1.33 52.04-1.4 52.69-1.6 53.34-1.8 53.39-2.05L53.39-2.05Q53.59-2.65 53.62-3.6 53.64-4.55 53.64-5.65L53.64-5.65ZM74.14-21.45L74.14-21.45Q77.39-21.45 79.72-20.05 82.04-18.65 83.32-16.25 84.59-13.85 84.59-10.8L84.59-10.8Q84.59-7.65 83.24-5.13 81.89-2.6 79.54-1.13 77.19 0.35 74.24 0.35L74.24 0.35Q71.04 0.35 68.67-1.07 66.29-2.5 65.02-4.93 63.74-7.35 63.74-10.4L63.74-10.4Q63.74-13.55 65.12-16.05 66.49-18.55 68.84-20 71.19-21.45 74.14-21.45ZM73.59-19.8L73.59-19.8Q71.54-19.8 70.29-18.57 69.04-17.35 68.49-15.43 67.94-13.5 67.94-11.4L67.94-11.4Q67.94-9.05 68.72-6.7 69.49-4.35 71.02-2.8 72.54-1.25 74.74-1.25L74.74-1.25Q76.84-1.25 78.07-2.48 79.29-3.7 79.84-5.65 80.39-7.6 80.39-9.65L80.39-9.65Q80.39-12.05 79.59-14.38 78.79-16.7 77.29-18.25 75.79-19.8 73.59-19.8ZM101.39-21.35L101.39-21.35Q102.34-21.35 103.19-20.93 104.04-20.5 104.39-19.9L104.39-19.9Q104.49-19.7 104.54-19.35 104.59-19 104.59-18.6L104.59-18.6Q104.59-17.25 103.96-16.65 103.34-16.05 102.94-16.05L102.94-16.05Q102.44-16.05 101.99-16.4 101.54-16.75 101.14-17L101.14-17Q100.79-17.25 100.41-17.43 100.04-17.6 99.34-17.6L99.34-17.6Q98.29-17.6 97.41-16.73 96.54-15.85 95.99-14.8 95.44-13.75 95.44-13.2L95.44-13.2 95.44-5.65Q95.44-4.55 95.46-3.6 95.49-2.65 95.69-2.05L95.69-2.05Q95.79-1.8 96.69-1.6 97.59-1.4 98.59-1.33 99.59-1.25 99.89-1.25L99.89-1.25Q100.04-1.05 100.06-0.55 100.09-0.05 99.89 0.15L99.89 0.15Q98.39 0.05 96.84-0.03 95.29-0.1 93.84-0.1L93.84-0.1Q92.44-0.1 91.14-0.03 89.84 0.05 88.34 0.15L88.34 0.15Q88.14-0.05 88.16-0.55 88.19-1.05 88.34-1.25L88.34-1.25Q88.64-1.25 89.36-1.33 90.09-1.4 90.74-1.6 91.39-1.8 91.44-2.05L91.44-2.05Q91.64-2.65 91.66-3.6 91.69-4.55 91.69-5.65L91.69-5.65 91.69-14.75Q91.69-15.25 91.66-16.05 91.64-16.85 91.44-17.3L91.44-17.3Q91.29-17.75 90.59-17.93 89.89-18.1 89.19-18.13 88.49-18.15 88.29-18.15L88.29-18.15Q88.24-18.25 88.19-18.75 88.14-19.25 88.29-19.45L88.29-19.45Q90.19-19.7 91.99-20.2 93.79-20.7 95.24-21.5L95.24-21.5Q95.44-21.5 95.61-21.2 95.79-20.9 95.79-20.7L95.79-20.7Q95.79-20.55 95.69-19.55 95.59-18.55 95.51-17.53 95.44-16.5 95.44-16.2L95.44-16.2Q95.44-16.05 95.51-16.05 95.59-16.05 95.64-16.1L95.64-16.1Q96.14-17.15 97.06-18.38 97.99-19.6 99.14-20.48 100.29-21.35 101.39-21.35ZM110.49-12.1L110.49-12.1Q110.44-9 111.54-6.9 112.64-4.8 114.49-3.78 116.34-2.75 118.49-2.75L118.49-2.75Q119.84-2.75 120.94-3.23 122.04-3.7 122.79-4.33 123.54-4.95 123.84-5.3L123.84-5.3Q123.89-5.3 124.06-5.13 124.24-4.95 124.24-4.65L124.24-4.65Q124.24-4.25 123.94-3.75L123.94-3.75Q123.49-3.05 122.54-2.08 121.59-1.1 120.14-0.35 118.69 0.4 116.79 0.4L116.79 0.4Q113.94 0.4 111.74-0.95 109.54-2.3 108.29-4.6 107.04-6.9 107.04-9.75L107.04-9.75Q107.04-12.2 107.91-14.33 108.79-16.45 110.21-18.03 111.64-19.6 113.34-20.5 115.04-21.4 116.64-21.4L116.64-21.4Q118.84-21.4 120.26-20.65 121.69-19.9 122.51-18.8 123.34-17.7 123.66-16.6 123.99-15.5 123.99-14.75L123.99-14.75Q123.99-13.7 123.74-13.1 123.49-12.5 122.79-12.45L122.79-12.45Q122.34-12.4 121.01-12.38 119.69-12.35 117.99-12.3 116.29-12.25 114.64-12.2 112.99-12.15 111.84-12.13 110.69-12.1 110.49-12.1ZM110.74-13.9L110.74-13.9 118.69-13.9Q119.14-13.9 119.46-14.15 119.79-14.4 119.84-15.05L119.84-15.05Q119.89-15.65 119.49-16.75 119.09-17.85 118.21-18.75 117.34-19.65 115.84-19.65L115.84-19.65Q114.29-19.65 113.29-18.78 112.29-17.9 111.71-16.78 111.14-15.65 110.91-14.78 110.69-13.9 110.74-13.9ZM139.58-21.4L139.58-21.4Q140.38-21.4 141.48-21.23 142.58-21.05 142.93-20.9L142.93-20.9Q143.18-20.9 143.18-21.9L143.18-21.9 143.18-27.25Q143.18-27.8 143.16-28.58 143.13-29.35 142.93-29.8L142.93-29.8Q142.73-30.35 141.83-30.5 140.93-30.65 139.93-30.65L139.93-30.65Q139.88-30.65 139.86-31.28 139.83-31.9 139.98-31.95L139.98-31.95Q141.83-32.15 143.61-32.68 145.38-33.2 146.93-33.9L146.93-33.9Q147.13-33.9 147.31-33.63 147.48-33.35 147.48-33.1L147.48-33.1Q147.48-33.1 147.21-32 146.93-30.9 146.93-28.85L146.93-28.85 146.93-7.95Q146.93-6.55 147.01-5.13 147.08-3.7 147.28-3.15L147.28-3.15Q147.53-2.6 148.46-2.48 149.38-2.35 149.88-2.3L149.88-2.3Q150.08-2.3 150.13-2.3L150.13-2.3Q150.23-2.25 150.26-2.02 150.28-1.8 150.28-1.7L150.28-1.7Q150.28-1.65 150.21-1.33 150.13-1 149.93-1L149.93-1Q148.68-0.95 147.21-0.6 145.73-0.25 144.68 0.08 143.63 0.4 143.58 0.4L143.58 0.4Q143.38 0.4 143.28 0.05 143.18-0.3 143.18-0.55L143.18-0.55 143.18-2.25Q143.18-2.7 143.03-2.55L143.03-2.55Q142.68-2.15 141.56-1.45 140.43-0.75 139.08-0.18 137.73 0.4 136.53 0.4L136.53 0.4Q134.33 0.4 132.36-0.98 130.38-2.35 129.16-4.73 127.93-7.1 127.93-10.05L127.93-10.05Q127.93-12.45 129.11-14.53 130.28-16.6 132.11-18.13 133.93-19.65 135.93-20.53 137.93-21.4 139.58-21.4ZM137.98-19.35L137.98-19.35Q136.13-19.35 134.81-18.18 133.48-17 132.76-15.15 132.03-13.3 132.03-11.25L132.03-11.25Q132.03-8.95 132.83-7 133.63-5.05 135.18-3.85 136.73-2.65 138.93-2.65L138.93-2.65Q140.58-2.65 141.88-3.33 143.18-4 143.18-4.6L143.18-4.6 143.18-16.95Q143.18-17.8 141.61-18.57 140.03-19.35 137.98-19.35Z" opacity="1" transform="matrix(1,0,0,1,0,0)" fill="#ffdb99" class="wordmark-text-0" data-fill-palette-color="primary" id="text-0"></path></svg></g></svg></g></svg></g></svg></g><g transform="matrix(1,0,0,1,257.68829339984757,0)"><svg viewBox="0 0 125.06550482784972 77.60671122261218" height="77.60671122261218" width="125.06550482784972"><g><svg xmlns="http://www.w3.org/2000/svg" xmlns:xlink="http://www.w3.org/1999/xlink" version="1.1" x="0" y="0" viewBox="0.44099999999999895 20.49423039274272 100 62.052850887569946" enable-background="new 0 0 101 101" xml:space="preserve" height="77.60671122261218" width="125.06550482784972" class="icon-icon-0" data-fill-palette-color="accent" id="icon-0"><g fill="#ff5db2" data-fill-palette-color="accent"><path fill="#ff5db2" d="M67.688 73.438c-0.152 0.369-0.551 0.853-1.074 1.385l-0.002 0.002c-3.719 3.325-5.17 4.57-5.27 4.655 0 0.001-0.002 0.001-0.002 0.001-1.891 1.138-6.461 2.169-8.184 2.169-0.092 0-0.172-0.004-0.238-0.009-3.845-0.361-8.905-3.519-11.27-5.647-2.539-2.284-5.241-6.966-3.708-9.811 1.409-2.62 10.791-4.195 13.031-4.196-0.178 0.666 0.094 1.208 1.79 1.802 0.889 0.312 2.051 0.321 3.395 0.33 2.533 0.019 5.686 0.04 8.736 2.071C69.441 69.225 68.256 72.069 67.688 73.438z" data-fill-palette-color="accent"></path></g><g fill="#ff5db2" data-fill-palette-color="accent"><path fill="#ff5db2" d="M100.441 64.486c-0.789 0.388-1.709 1.121-3.412 2.473-0.277 0.222-0.576 0.46-0.9 0.714-1.574 1.246-4.053 3.88-6.449 6.426-2.064 2.195-4.016 4.267-5.027 5.053-2.129 1.655-7.613 3.11-10.309 3.343-2.629 0.229-5.617-0.306-7.994-1.431-1.553-0.736-3.08-1.218-3.953-1.462 0.01-0.007 0.02-0.017 0.025-0.023 0.459-0.458 1.166-1.066 1.914-1.709 0.943-0.811 1.959-1.68 2.744-2.48 0.002-0.002 0.002-0.002 0.004-0.004 0.006-0.006 0.012-0.01 0.018-0.015 0.594-0.531 1.252-1.059 1.963-1.585 0.039-0.025 0.08-0.057 0.123-0.088 4.07-2.969 9.742-5.733 14.107-7.347 4.182-1.545 11.496-1.723 15.424-1.815C99.396 64.519 99.979 64.504 100.441 64.486z" data-fill-palette-color="accent"></path></g><g fill="#ff5db2" data-fill-palette-color="accent"><path fill="#ff5db2" d="M100.361 63.755c-0.453 0.019-1.023 0.031-1.66 0.048-3.078 0.073-8.207 0.198-12.359 0.987 2.484-1.657 5.699-3.763 6.379-4.064 1.033-0.46 3.693-0.553 4.531-0.031C97.279 60.713 99.625 62.29 100.361 63.755z" data-fill-palette-color="accent"></path></g><g fill="#ff5db2" data-fill-palette-color="accent"><path fill="#ff5db2" d="M97.859 38.803c-1.623 4.061-8.576 20.831-14.889 26.887-3.207 1.19-7.426 3.104-11.166 5.382 2.453-2.706 5.633-6.572 6.77-8.067 0.814-1.069 3.01-4.721 5.336-8.585 2.664-4.426 5.418-9.002 6.51-10.412C91.971 41.999 96.072 39.731 97.859 38.803z" data-fill-palette-color="accent"></path></g><g fill="#ff5db2" data-fill-palette-color="accent"><path fill="#ff5db2" d="M78.283 55.73c-0.465 5.138-5.268 12.771-5.492 13.124 0 0.002 0 0.002-0.002 0.004-1.625 1.868-3.16 3.537-3.938 4.171-0.004 0.002-0.008 0.006-0.01 0.006-0.096 0.071-0.193 0.143-0.289 0.214 0.615-1.608 1.305-4.627-3.254-7.668-2.945-1.964-5.926-2.158-8.422-2.188-0.939-9.379 6.152-15.076 9.271-17.105 1.295-0.841 2.393-0.917 3.455-0.991 0.869-0.061 1.689-0.117 2.51-0.586 1.01-0.577 1.154-1.401 1.25-1.949 0.094-0.531 0.096-0.541 0.473-0.487 0.65 0.09 1.223 0.949 1.727 1.707 0.482 0.728 0.902 1.359 1.459 1.387C77.637 45.796 78.75 50.584 78.283 55.73z" data-fill-palette-color="accent"></path><path fill="#ff5db2" d="M96.119 38.903c-2.061 1.149-4.967 2.955-6.281 4.655-1.117 1.445-3.881 6.039-6.555 10.481-2.316 3.849-4.504 7.483-5.291 8.521-0.566 0.744-1.496 1.901-2.564 3.188 1.49-2.807 3.299-6.777 3.586-9.952 0.059-0.64 0.092-1.285 0.105-1.929l0.148 0.394c0.041-0.017 1.074-0.414 2.471-1.927 0.58-0.628 1.23-1.698 2.053-3.054 1.145-1.881 2.566-4.224 4.416-6.358 0.32-0.37 0.686-0.711 1.088-1.024l0.1-0.005c-0.002-0.022-0.004-0.045-0.004-0.069C91.375 40.297 94.141 39.395 96.119 38.903z" data-fill-palette-color="accent"></path></g><g fill="#ff5db2" data-fill-palette-color="accent"><path fill="#ff5db2" d="M88.604 41.512c-0.344 0.289-0.662 0.599-0.949 0.931-1.889 2.182-3.33 4.552-4.488 6.457-0.77 1.268-1.436 2.363-1.967 2.938-1.006 1.088-1.791 1.542-2.074 1.684 0.037-3.961-0.699-7.705-1.535-8.619-0.162-0.176-0.34-0.266-0.527-0.266-0.184 0-0.627-0.665-0.891-1.063-0.59-0.887-1.258-1.891-2.234-2.028-1.08-0.15-1.209 0.595-1.295 1.088-0.051 0.286-0.1 0.576-0.262 0.847-0.039-1.12-0.443-2.581-0.961-4.026 2.482-2.851 6.822-4.472 6.867-4.488l0.025-0.011c1.119-0.507 7.939-3.28 10.049-4.138-0.225 1.238-0.676 3.903-0.676 5.413 0 1.278 0.387 2.94 0.67 4.153C88.455 40.816 88.547 41.211 88.604 41.512z" data-fill-palette-color="accent"></path></g><g fill="#ff5db2" data-fill-palette-color="accent"><path fill="#ff5db2" d="M43.726 53.072c-0.938-1.174-1.89-2.15-2.75-2.647-3.295-1.901-10.122-6.239-11.392-7.624-0.728-0.793-1.013-1.064-1.363-0.993-0.297 0.059-0.394 0.332-0.48 0.573-0.051 0.145-0.11 0.31-0.21 0.485-0.29 0.504-1.346 6.032-0.522 12.291-1.517-2.848-3.422-7.823-4.048-13.289-0.632-5.519-0.154-12.573 0.212-14.188 0.709 0.389 2.411 0.971 6.116 2.176 3.275 1.066 6.988 2.275 8.269 3.008 2.112 1.205 5.827 5.849 6.892 7.208C42.909 44.864 42.66 49.271 43.726 53.072z" data-fill-palette-color="accent"></path><path fill="#ff5db2" d="M48.221 61.531c-3.761 0.566-9.687 2.001-10.924 4.303-0.779 1.445-0.643 3.215-0.024 4.946-3.845-2.092-6.609-5.479-8.225-10.078-2.722-7.754-1.246-16.719-0.881-17.47 0.125-0.22 0.202-0.425 0.257-0.579 0.203 0.189 0.502 0.513 0.621 0.645 1.372 1.496 8.36 5.913 11.566 7.762C43.455 52.702 47.646 60.447 48.221 61.531z" data-fill-palette-color="accent"></path></g><g fill="#ff5db2" data-fill-palette-color="accent"><path fill="#ff5db2" d="M40.527 75.922c-2.354-0.211-7.477-2.132-10.298-3.759-0.569-0.33-1.22-0.686-1.975-1.096-3.308-1.802-8.307-4.527-12.485-8.551-3.861-3.714-11.282-6.326-14.451-7.441-0.231-0.083-0.459-0.163-0.665-0.237 0.475-0.17 1.101-0.406 1.874-0.701 1.475-0.563 3.145-1.198 3.779-1.324l0.253-0.054c1.143-0.236 2.44-0.503 6.587 0.058 4.127 0.557 13.535 5.964 14.746 6.666 0.062 0.22 0.128 0.44 0.198 0.661 1.728 5.502 4.959 9.43 9.609 11.677h0.002C38.423 73.37 39.474 74.83 40.527 75.922z" data-fill-palette-color="accent"></path></g><g fill="#ff5db2" data-fill-palette-color="accent"><path fill="#ff5db2" d="M42.168 77.378C38.695 77.8 25.938 79.1 21.968 76.015c-4.926-3.83-13.726-11.424-15.845-13.496-1.852-1.808-4.59-5.215-5.682-6.978 0.189 0.066 0.399 0.142 0.636 0.224 3.123 1.102 10.438 3.677 14.184 7.281 4.25 4.089 9.302 6.842 12.645 8.664 0.749 0.409 1.396 0.763 1.958 1.087 2.83 1.634 8.666 3.872 11.102 3.872 0.116 0 0.224-0.005 0.325-0.016C41.553 76.886 41.848 77.129 42.168 77.378z" data-fill-palette-color="accent"></path></g><g fill="#ff5db2" data-fill-palette-color="accent"><path fill="#ff5db2" d="M71.613 44.146c0 0.002 0 0.002 0 0.002-0.633 0.32-1.297 0.364-2.061 0.417-1.102 0.077-2.35 0.163-3.803 1.108-2.068 1.345-5.822 4.248-8 8.729-1.373-0.019-8.238 0.065-10.841 3.337-0.59-0.973-1.27-2.04-1.986-3.061l0.116-0.048c-2.002-4.795-1.288-10.077 0.177-14.542l0.106-0.08c-0.009-0.013-0.027-0.037-0.055-0.074 0.503-1.511 1.091-2.927 1.687-4.194 2.716-5.783 6.348-10.246 7.172-11.125 0.908-0.967 1.1-2.132 1.242-2.98 0.084-0.504 0.164-0.978 0.352-1.097 0.135-0.084 0.4-0.031 0.598 0.025 1.438 0.423 7.955 8.386 12 13.652C69.406 36.31 72.023 41.99 71.613 44.146z" data-fill-palette-color="accent"></path><path fill="#ff5db2" d="M56.141 63.385c-1.268-0.009-2.365-0.018-3.137-0.287-1.457-0.51-1.367-0.793-1.309-0.98 0.049-0.151 0.129-0.404-0.035-0.648-0.133-0.199-0.387-0.216-0.684-0.216-0.466 0-1.295 0.071-2.325 0.216l0.286-0.147c-0.068-0.132-0.696-1.328-1.621-2.898 2.051-2.98 8.229-3.27 10.096-3.286C56.402 57.482 55.838 60.232 56.141 63.385z" data-fill-palette-color="accent"></path></g></svg></g></svg></g></svg></g></svg></g></svg></g><path d="M203.296 92.82L203.296 29.743 391.009 29.743 391.009 217.457 203.296 217.457 203.296 154.38 206.53 154.38 206.53 214.223 387.775 214.223 387.775 32.977 206.53 32.977 206.53 92.82Z" fill="#ffdb99" stroke="transparent" data-fill-palette-color="tertiary"></path></svg></g><defs></defs></svg><rect width="395.52" height="247.2" fill="none" stroke="none" visibility="hidden"></rect></g></svg></g></svg>